<svg width="100" height="100" viewBox="-50 -50 100 100" xmlns="http://www.w3.org/2000/svg"><g><polygon points="-24.99999999999999,-43.30127018922194 25.000000000000007,-43.30127018922193 16.66666666666667,-28.867513459481287 -16.66666666666666,-28.867513459481295" fill="hsl(0, 100%, 45%)"></polygon> <polygon points="25.000000000000007,-43.30127018922193 50,0 33.333333333333336,0 16.66666666666667,-28.867513459481287" fill="hsl(60, 100%, 45%)"></polygon> <polygon points="50,0 25.000000000000007,43.30127018922193 16.66666666666667,28.867513459481287 33.333333333333336,0" fill="hsl(120, 100%, 45%)"></polygon> <polygon points="25.000000000000007,43.30127018922193 -24.99999999999999,43.30127018922194 -16.66666666666666,28.867513459481295 16.66666666666667,28.867513459481287" fill="hsl(180, 100%, 45%)"></polygon> <polygon points="-24.99999999999999,43.30127018922194 -50,6.123233995736766e-15 -33.333333333333336,4.0821559971578446e-15 -16.66666666666666,28.867513459481295" fill="hsl(240, 100%, 45%)"></polygon> <polygon points="-50,6.123233995736766e-15 -24.99999999999999,-43.30127018922194 -16.66666666666666,-28.867513459481295 -33.333333333333336,4.0821559971578446e-15" fill="hsl(300, 100%, 45%)"></polygon> <line x1="-24.99999999999999" y1="-43.30127018922194" x2="25.000000000000007" y2="43.30127018922193" stroke="#fff" stroke-width="5"></line> <line x1="25.000000000000007" y1="-43.30127018922193" x2="-24.99999999999999" y2="43.30127018922194" stroke="#fff" stroke-width="5"></line> <line x1="50" y1="0" x2="-50" y2="6.123233995736766e-15" stroke="#fff" stroke-width="5"></line></g> <line x1="0" y1="0" x2="-21.65063509461097" y2="-12.499999999999998" stroke="hsl(0, 100%, 45%)" stroke-width="4"></line> <line x1="0" y1="0" x2="0" y2="-25" stroke="hsl(0, 100%, 45%)" stroke-width="4"></line> <line x1="0" y1="0" x2="21.65063509461097" y2="-12.499999999999998" stroke="hsl(120, 100%, 45%)" stroke-width="4"></line> <line x1="0" y1="0" x2="21.65063509461096" y2="12.50000000000001" stroke="hsl(120, 100%, 45%)" stroke-width="4"></line> <line x1="0" y1="0" x2="0" y2="25" stroke="hsl(240, 100%, 45%)" stroke-width="4"></line> <line x1="0" y1="0" x2="-21.65063509461097" y2="12.499999999999995" stroke="hsl(240, 100%, 45%)" stroke-width="4"></line> <circle cx="0" cy="0" r="4" fill="white"></circle></svg>
