<svg width="100" height="100" viewBox="-50 -50 100 100" xmlns="http://www.w3.org/2000/svg"><g showteamsandturn="true"><polygon points="-24.99999999999999,-43.30127018922194 25.000000000000007,-43.30127018922193 16.66666666666667,-28.867513459481287 -16.66666666666666,-28.867513459481295" fill="hsl(0, 100%, 45%)"></polygon><polygon points="25.000000000000007,-43.30127018922193 50,0 33.333333333333336,0 16.66666666666667,-28.867513459481287" fill="hsl(60, 100%, 45%)"></polygon><polygon points="50,0 25.000000000000007,43.30127018922193 16.66666666666667,28.867513459481287 33.333333333333336,0" fill="hsl(120, 100%, 45%)"></polygon><polygon points="25.000000000000007,43.30127018922193 -24.99999999999999,43.30127018922194 -16.66666666666666,28.867513459481295 16.66666666666667,28.867513459481287" fill="hsl(180, 100%, 45%)"></polygon><polygon points="-24.99999999999999,43.30127018922194 -50,6.123233995736766e-15 -33.333333333333336,4.0821559971578446e-15 -16.66666666666666,28.867513459481295" fill="hsl(240, 100%, 45%)"></polygon><polygon points="-50,6.123233995736766e-15 -24.99999999999999,-43.30127018922194 -16.66666666666666,-28.867513459481295 -33.333333333333336,4.0821559971578446e-15" fill="hsl(300, 100%, 45%)"></polygon> <g><!----><!----><g><line x1="0" y1="0" x2="50" y2="0" stroke="#fff" stroke-width="5"></line> <!----></g><!----><!----><g><line x1="0" y1="0" x2="-50" y2="6.123233995736766e-15" stroke="#fff" stroke-width="5"></line> <!----></g> <!----><!----><!----><!----><!----><!----></g></g> <text x="9.18485099360515e-16" y="-15" font-family="monospace" dominant-baseline="central" text-anchor="middle" pointer-events="none">MRY</text> <text x="-2.7554552980815444e-15" y="15" font-family="monospace" pointer-events="none" style="dominant-baseline: central; text-anchor: middle;">GCB</text></svg>
