<svg width="100" height="100" viewBox="-50 -50 100 100" xmlns="http://www.w3.org/2000/svg"><g showteamsandturn="true"><polygon points="-24.99999999999999,-43.30127018922194 25.000000000000007,-43.30127018922193 16.66666666666667,-28.867513459481287 -16.66666666666666,-28.867513459481295" fill="hsl(0, 100%, 45%)"></polygon><polygon points="25.000000000000007,-43.30127018922193 50,0 33.333333333333336,0 16.66666666666667,-28.867513459481287" fill="hsl(60, 100%, 45%)"></polygon><polygon points="50,0 25.000000000000007,43.30127018922193 16.66666666666667,28.867513459481287 33.333333333333336,0" fill="hsl(120, 100%, 45%)"></polygon><polygon points="25.000000000000007,43.30127018922193 -24.99999999999999,43.30127018922194 -16.66666666666666,28.867513459481295 16.66666666666667,28.867513459481287" fill="hsl(180, 100%, 45%)"></polygon><polygon points="-24.99999999999999,43.30127018922194 -50,6.123233995736766e-15 -33.333333333333336,4.0821559971578446e-15 -16.66666666666666,28.867513459481295" fill="hsl(240, 100%, 45%)"></polygon><polygon points="-50,6.123233995736766e-15 -24.99999999999999,-43.30127018922194 -16.66666666666666,-28.867513459481295 -33.333333333333336,4.0821559971578446e-15" fill="hsl(300, 100%, 45%)"></polygon> <g><g><line x1="0" y1="0" x2="-24.99999999999999" y2="-43.30127018922194" stroke="#fff" stroke-width="5"></line> <!----></g><g><line x1="0" y1="0" x2="25.000000000000007" y2="-43.30127018922193" stroke="#fff" stroke-width="5"></line> <!----></g><g><line x1="0" y1="0" x2="50" y2="0" stroke="#fff" stroke-width="5"></line> <!----></g><g><line x1="0" y1="0" x2="25.000000000000007" y2="43.30127018922193" stroke="#fff" stroke-width="5"></line> <!----></g><g><line x1="0" y1="0" x2="-24.99999999999999" y2="43.30127018922194" stroke="#fff" stroke-width="5"></line> <!----></g><g><line x1="0" y1="0" x2="-50" y2="6.123233995736766e-15" stroke="#fff" stroke-width="5"></line> <!----></g> <!----><!----><!----><!----><!----><!----></g></g> <text x="1.2246467991473533e-15" y="-20" font-family="monospace" dominant-baseline="central" text-anchor="middle" pointer-events="none">R</text> <text x="17.320508075688775" y="-9.999999999999998" font-family="monospace" dominant-baseline="central" text-anchor="middle" pointer-events="none">Y</text> <text x="17.320508075688767" y="10.000000000000009" font-family="monospace" dominant-baseline="central" text-anchor="middle" pointer-events="none">G</text> <text x="-3.673940397442059e-15" y="20" font-family="monospace" dominant-baseline="central" text-anchor="middle" pointer-events="none">C</text> <text x="-17.320508075688778" y="9.999999999999996" font-family="monospace" dominant-baseline="central" text-anchor="middle" pointer-events="none">B</text> <text x="-17.320508075688775" y="-9.999999999999998" font-family="monospace" dominant-baseline="central" text-anchor="middle" pointer-events="none">M</text></svg>
