<svg width="200" height="200" viewBox="-2 -2 4 4" xmlns="http://www.w3.org/2000/svg"><g><polygon points="-0.9999999999999996,-1.7320508075688776 1.0000000000000002,-1.7320508075688772 0.6666666666666667,-1.1547005383792515 -0.6666666666666663,-1.1547005383792517" fill="hsl(0, 100%, 45%)"></polygon> <polygon points="1.0000000000000002,-1.7320508075688772 2,0 1.3333333333333333,0 0.6666666666666667,-1.1547005383792515" fill="hsl(60, 100%, 45%)"></polygon> <polygon points="2,0 1.0000000000000002,1.7320508075688772 0.6666666666666667,1.1547005383792515 1.3333333333333333,0" fill="hsl(120, 100%, 45%)"></polygon> <polygon points="1.0000000000000002,1.7320508075688772 -0.9999999999999996,1.7320508075688776 -0.6666666666666663,1.1547005383792517 0.6666666666666667,1.1547005383792515" fill="hsl(180, 100%, 45%)"></polygon> <polygon points="-0.9999999999999996,1.7320508075688776 -2,2.4492935982947064e-16 -1.3333333333333333,1.6328623988631375e-16 -0.6666666666666663,1.1547005383792517" fill="hsl(240, 100%, 45%)"></polygon> <polygon points="-2,2.4492935982947064e-16 -0.9999999999999996,-1.7320508075688776 -0.6666666666666663,-1.1547005383792517 -1.3333333333333333,1.6328623988631375e-16" fill="hsl(300, 100%, 45%)"></polygon> <line x1="-0.9999999999999996" y1="-1.7320508075688776" x2="1.0000000000000002" y2="1.7320508075688772" stroke="#fff" stroke-width="0.2"></line> <line x1="1.0000000000000002" y1="-1.7320508075688772" x2="-0.9999999999999996" y2="1.7320508075688776" stroke="#fff" stroke-width="0.2"></line> <line x1="2" y1="0" x2="-2" y2="2.4492935982947064e-16" stroke="#fff" stroke-width="0.2"></line></g> <g style="isolation: isolate;"><circle cx="-0.3464101615137755" cy="-0.19999999999999998" r="0.6" fill="hsl(300, 100%, 45%)" style="mix-blend-mode: multiply;"></circle> <circle cx="0.3464101615137755" cy="-0.19999999999999998" r="0.6" fill="hsl(60, 100%, 45%)" style="mix-blend-mode: multiply;"></circle> <circle cx="0" cy="0.4" r="0.6" fill="hsl(180, 100%, 45%)" style="mix-blend-mode: multiply;"></circle></g></svg>
