<svg width="200" height="200" viewBox="0 0 100 100" xmlns="http://www.w3.org/2000/svg"><g><g><polygon points="25.00000000000001,11.698729810778062 75,11.698729810778069 66.66666666666667,26.132486540518713 33.33333333333334,26.132486540518705" fill="hsl(0, 100%, 45%)"></polygon> <polygon points="75,11.698729810778069 100,55 83.33333333333334,55 66.66666666666667,26.132486540518713" fill="hsl(60, 100%, 45%)"></polygon> <polygon points="100,55 75,98.30127018922192 66.66666666666667,83.86751345948129 83.33333333333334,55" fill="hsl(120, 100%, 45%)"></polygon> <polygon points="75,98.30127018922192 25.00000000000001,98.30127018922194 33.33333333333334,83.8675134594813 66.66666666666667,83.86751345948129" fill="hsl(180, 100%, 45%)"></polygon> <polygon points="25.00000000000001,98.30127018922194 0,55.00000000000001 16.666666666666664,55.00000000000001 33.33333333333334,83.8675134594813" fill="hsl(240, 100%, 45%)"></polygon> <polygon points="0,55.00000000000001 25.00000000000001,11.698729810778062 33.33333333333334,26.132486540518705 16.666666666666664,55.00000000000001" fill="hsl(300, 100%, 45%)"></polygon> <line x1="25.00000000000001" y1="11.698729810778062" x2="75" y2="98.30127018922192" stroke="#fff" stroke-width="5"></line> <line x1="75" y1="11.698729810778069" x2="25.00000000000001" y2="98.30127018922194" stroke="#fff" stroke-width="5"></line> <line x1="100" y1="55" x2="0" y2="55.00000000000001" stroke="#fff" stroke-width="5"></line></g> <g><g><polygon points="33.962492522510395,17.962962962962962 41.981246261255194,22.59259259259259 41.981246261255194,31.851851851851855 33.962492522510395,36.48148148148148 25.94373878376559,31.851851851851848 25.943738783765593,22.59259259259259 " fill="#eee" stroke="#555" stroke-width="0.8"></polygon></g> <!----> <!----></g><g><g><polygon points="50,17.962962962962962 58.018753738744806,22.59259259259259 58.0187537387448,31.851851851851855 50,36.48148148148148 41.981246261255194,31.851851851851848 41.981246261255194,22.59259259259259 " fill="#eee" stroke="#555" stroke-width="0.8"></polygon></g> <!----> <!----></g><g><g><polygon points="66.03750747748961,17.962962962962962 74.05626121623442,22.59259259259259 74.05626121623442,31.851851851851855 66.03750747748961,36.48148148148148 58.018753738744806,31.851851851851848 58.018753738744806,22.59259259259259 " fill="#eee" stroke="#555" stroke-width="0.8"></polygon></g> <g style="isolation: isolate;"><g style="mix-blend-mode: screen;"><circle cx="66.03750747748961" cy="24.444444444444443" r="3.703703703703704" fill="hsl(0, 100%, 45%)" stroke="none" stroke-width="0.5"></circle> <!----></g> <!----> <!----> <!----> <g style="mix-blend-mode: screen;"><circle cx="63.63188135586617" cy="28.61111111111111" r="3.703703703703704" fill="hsl(240, 100%, 45%)" stroke="none" stroke-width="0.5"></circle> <!----></g> <!----></g> <!----></g><g><g><polygon points="25.943738783765593,31.851851851851855 33.962492522510395,36.48148148148149 33.962492522510395,45.74074074074075 25.943738783765593,50.370370370370374 17.92498504502079,45.74074074074074 17.92498504502079,36.48148148148149 " fill="#eee" stroke="#555" stroke-width="0.8"></polygon></g> <!----> <!----></g><g><g><polygon points="41.981246261255194,31.851851851851855 50,36.48148148148149 49.99999999999999,45.74074074074075 41.981246261255194,50.370370370370374 33.96249252251039,45.74074074074074 33.96249252251039,36.48148148148149 " fill="#eee" stroke="#555" stroke-width="0.8"></polygon></g> <g style="isolation: isolate;"><g style="mix-blend-mode: screen;"><circle cx="41.981246261255194" cy="38.333333333333336" r="3.703703703703704" fill="hsl(0, 100%, 45%)" stroke="none" stroke-width="0.5"></circle> <!----></g> <!----> <!----> <!----> <!----> <!----></g> <!----></g><g><g><polygon points="58.018753738744806,31.851851851851855 66.03750747748961,36.48148148148149 66.03750747748961,45.74074074074075 58.018753738744806,50.370370370370374 50,45.74074074074074 50,36.48148148148149 " fill="#eee" stroke="#555" stroke-width="0.8"></polygon></g> <g style="isolation: isolate;"><g style="mix-blend-mode: screen;"><circle cx="58.018753738744806" cy="38.333333333333336" r="3.703703703703704" fill="hsl(0, 100%, 45%)" stroke="none" stroke-width="0.5"></circle> <!----></g> <!----> <!----> <!----> <!----> <!----></g> <!----></g><g><g><polygon points="74.0562612162344,31.851851851851855 82.07501495497921,36.48148148148149 82.07501495497921,45.74074074074075 74.0562612162344,50.370370370370374 66.0375074774896,45.74074074074074 66.0375074774896,36.48148148148149 " fill="#eee" stroke="#555" stroke-width="0.8"></polygon></g> <!----> <!----></g><g><g><polygon points="17.92498504502079,45.74074074074074 25.943738783765593,50.370370370370374 25.94373878376559,59.62962962962963 17.92498504502079,64.25925925925927 9.906231306275986,59.629629629629626 9.906231306275988,50.370370370370374 " fill="#eee" stroke="#555" stroke-width="0.8"></polygon></g> <!----> <!----></g><g><g><polygon points="33.962492522510395,45.74074074074074 41.981246261255194,50.370370370370374 41.981246261255194,59.62962962962963 33.962492522510395,64.25925925925927 25.94373878376559,59.629629629629626 25.943738783765593,50.370370370370374 " fill="#eee" stroke="#555" stroke-width="0.8"></polygon></g> <g style="isolation: isolate;"><g style="mix-blend-mode: screen;"><circle cx="33.962492522510395" cy="52.22222222222222" r="3.703703703703704" fill="hsl(0, 100%, 45%)" stroke="none" stroke-width="0.5"></circle> <!----></g> <!----> <g style="mix-blend-mode: screen;"><circle cx="36.36811864413384" cy="56.38888888888889" r="3.703703703703704" fill="hsl(120, 100%, 45%)" stroke="none" stroke-width="0.5"></circle> <!----></g> <!----> <!----> <!----></g> <!----></g><g><g><polygon points="50,45.74074074074074 58.018753738744806,50.370370370370374 58.0187537387448,59.62962962962963 50,64.25925925925927 41.981246261255194,59.629629629629626 41.981246261255194,50.370370370370374 " fill="#eee" stroke="#555" stroke-width="0.8"></polygon></g> <!----> <!----></g><g><g><polygon points="66.03750747748961,45.74074074074074 74.05626121623442,50.370370370370374 74.05626121623442,59.62962962962963 66.03750747748961,64.25925925925927 58.018753738744806,59.629629629629626 58.018753738744806,50.370370370370374 " fill="#eee" stroke="#555" stroke-width="0.8"></polygon></g> <!----> <!----></g><g><g><polygon points="82.07501495497921,45.74074074074074 90.09376869372402,50.370370370370374 90.09376869372402,59.62962962962963 82.07501495497921,64.25925925925927 74.0562612162344,59.629629629629626 74.0562612162344,50.370370370370374 " fill="#eee" stroke="#555" stroke-width="0.8"></polygon></g> <!----> <!----></g><g><g><polygon points="25.943738783765593,59.629629629629626 33.962492522510395,64.25925925925925 33.962492522510395,73.51851851851852 25.943738783765593,78.14814814814815 17.92498504502079,73.51851851851852 17.92498504502079,64.25925925925925 " fill="#eee" stroke="#555" stroke-width="0.8"></polygon></g> <!----> <!----></g><g><g><polygon points="41.981246261255194,59.629629629629626 50,64.25925925925925 49.99999999999999,73.51851851851852 41.981246261255194,78.14814814814815 33.96249252251039,73.51851851851852 33.96249252251039,64.25925925925925 " fill="#eee" stroke="#555" stroke-width="0.8"></polygon></g> <g style="isolation: isolate;"><g style="mix-blend-mode: screen;"><circle cx="41.981246261255194" cy="66.11111111111111" r="3.703703703703704" fill="hsl(0, 100%, 45%)" stroke="none" stroke-width="0.5"></circle> <!----></g> <!----> <!----> <!----> <g style="mix-blend-mode: screen;"><circle cx="39.57562013963175" cy="70.27777777777777" r="3.703703703703704" fill="hsl(240, 100%, 45%)" stroke="none" stroke-width="0.5"></circle> <!----></g> <!----></g> <!----></g><g><g><polygon points="58.018753738744806,59.629629629629626 66.03750747748961,64.25925925925925 66.03750747748961,73.51851851851852 58.018753738744806,78.14814814814815 50,73.51851851851852 50,64.25925925925925 " fill="#eee" stroke="#555" stroke-width="0.8"></polygon></g> <!----> <!----></g><g><g><polygon points="74.0562612162344,59.629629629629626 82.07501495497921,64.25925925925925 82.07501495497921,73.51851851851852 74.0562612162344,78.14814814814815 66.0375074774896,73.51851851851852 66.0375074774896,64.25925925925925 " fill="#eee" stroke="#555" stroke-width="0.8"></polygon></g> <!----> <!----></g><g><g><polygon points="33.962492522510395,73.5185185185185 41.981246261255194,78.14814814814814 41.981246261255194,87.4074074074074 33.962492522510395,92.03703703703704 25.94373878376559,87.4074074074074 25.943738783765593,78.14814814814814 " fill="#eee" stroke="#555" stroke-width="0.8"></polygon></g> <!----> <!----></g><g><g><polygon points="50,73.5185185185185 58.018753738744806,78.14814814814814 58.0187537387448,87.4074074074074 50,92.03703703703704 41.981246261255194,87.4074074074074 41.981246261255194,78.14814814814814 " fill="#eee" stroke="#555" stroke-width="0.8"></polygon></g> <g style="isolation: isolate;"><g style="mix-blend-mode: screen;"><circle cx="50" cy="80" r="3.703703703703704" fill="hsl(0, 100%, 45%)" stroke="none" stroke-width="0.5"></circle> <!----></g> <!----> <!----> <!----> <!----> <!----></g> <!----></g><g><g><polygon points="66.03750747748961,73.5185185185185 74.05626121623442,78.14814814814814 74.05626121623442,87.4074074074074 66.03750747748961,92.03703703703704 58.018753738744806,87.4074074074074 58.018753738744806,78.14814814814814 " fill="#eee" stroke="#555" stroke-width="0.8"></polygon></g> <!----> <!----></g></g></svg>
